<svg xmlns="http://www.w3.org/2000/svg" xmlns:xlink="http://www.w3.org/1999/xlink" width="512" height="512" viewBox="0 0 512 512">
  <defs>
    <clipPath id="clip-Branding_design">
      <rect width="512" height="512"/>
    </clipPath>
  </defs>
  <g id="Branding_design" data-name="Branding &amp; design" clip-path="url(#clip-Branding_design)">
    <g id="Group_221" data-name="Group 221" transform="translate(-515.46 -1330.66)">
      <path id="Path_2195" data-name="Path 2195" d="M631.816,1725.808v-24.62a5.989,5.989,0,0,0-4.713-5.794c-.037,0-5.27-1.188-7.682-5.644-2.078-3.788-1.781-9.209.816-16.079,6.346-16.858,24.345-59.748,29.726-72.486H774.026l23.491,73.859c1.782,5.608,1.707,10.1-.186,13.37-2.672,4.6-8.387,5.867-8.387,5.867a5.928,5.928,0,0,0-4.787,5.83v25.7a5.933,5.933,0,0,0,5.938,5.941H900.946a5.893,5.893,0,0,0,4.193-1.745,5.8,5.8,0,0,0,1.708-4.233v-27.108a5.957,5.957,0,0,0-5.678-5.942c-22.935-1-30.468-20.683-30.691-21.277L769.646,1352.052a5.937,5.937,0,0,0-5.641-4.123H674.234a5.933,5.933,0,0,0-5.937,5.941v28.52a5.912,5.912,0,0,0,3.785,5.534c3.266,1.263,5.752,3.862,7.348,7.686,3.043,7.316,2.561,18.493-1.225,27.22-1.632,3.788-88.621,201.9-100.422,231.9-14.325,36.354-40.414,37.95-41.49,38.025a5.937,5.937,0,0,0-5.752,5.905v27.182a5.933,5.933,0,0,0,5.938,5.941h89.364a5.933,5.933,0,0,0,5.938-5.941Zm-11.839-5.905H542.452V1703.75c10.577-2.338,33.177-11.139,46.389-44.672,11.727-29.78,98.641-227.743,100.274-231.568,4.194-9.655,6.2-24.694,1.3-36.5a25.688,25.688,0,0,0-10.206-12.291v-18.94h79.529l99.569,315.492c.371,1.078,9.167,24.7,35.738,28.78v15.894H796.032v-15.523a24.564,24.564,0,0,0,11.467-9.84c3.749-6.312,4.194-14.073,1.336-23.06l-24.79-77.981a5.938,5.938,0,0,0-5.641-4.122H646.067a5.949,5.949,0,0,0-5.456,3.639c-.965,2.3-23.862,56.481-31.433,76.533-3.9,10.36-3.9,19.161,0,26.142a23.1,23.1,0,0,0,10.836,9.767v14.483Z" transform="translate(35.462 46.82)" fill="#001010" stroke="#001010" stroke-width="1"/>
      <path id="Path_2196" data-name="Path 2196" d="M570.7,1495.562H671.971a5.9,5.9,0,0,0,5.641-7.719c-.259-.853-27.239-85.021-31.879-99.866-3.005-9.574-9.425-15.549-17.256-15.994-7.9-.371-15.252,5.084-19.558,14.881l-43.643,100.46a5.92,5.92,0,0,0,5.418,8.275Zm49.061-103.984c2.19-4.974,5.27-8.016,8.053-7.793,2.6.148,5.2,3.154,6.606,7.719,3.822,12.21,22.6,70.92,29.428,92.222h-84.13Z" transform="translate(128.418 112.077)" fill="#001010" stroke="#001010" stroke-width="1"/>
      <path id="Path_2197" data-name="Path 2197" d="M675.814,1330.66H650.208a5.922,5.922,0,1,0,0,11.843h19.706v112.907H650.208a5.94,5.94,0,0,0,0,11.88h19.706V1580.2H650.208a5.941,5.941,0,0,0,0,11.882h19.706V1704.99H650.208a5.921,5.921,0,1,0,0,11.842h19.706V1829.74H650.208a5.941,5.941,0,0,0,0,11.881h25.607a5.933,5.933,0,0,0,5.938-5.94V1336.749a5.933,5.933,0,0,0-5.937-5.94Z" transform="translate(344.033 0)" fill="#001010" stroke="#001010" stroke-width="1"/>
      <path id="Path_2198" data-name="Path 2198" d="M660.422,1465.359H633a5.938,5.938,0,0,0,0,11.875h27.425a5.938,5.938,0,0,0,0-11.875Z" transform="translate(297.375 365.426)" fill="#001010" stroke="#001010" stroke-width="1"/>
      <path id="Path_2199" data-name="Path 2199" d="M642.153,1465.359H614.728a5.938,5.938,0,0,0,0,11.875h27.425a5.938,5.938,0,0,0,0-11.875Z" transform="translate(247.777 365.426)" fill="#001010" stroke="#001010" stroke-width="1"/>
      <path id="Path_2200" data-name="Path 2200" d="M623.883,1465.359H596.458a5.938,5.938,0,1,0,0,11.875h27.425a5.938,5.938,0,0,0,0-11.875Z" transform="translate(198.211 365.426)" fill="#001010" stroke="#001010" stroke-width="1"/>
      <path id="Path_2201" data-name="Path 2201" d="M605.623,1465.359H578.2a5.938,5.938,0,0,0,0,11.875h27.425a5.938,5.938,0,0,0,0-11.875Z" transform="translate(148.672 365.426)" fill="#001010" stroke="#001010" stroke-width="1"/>
      <path id="Path_2202" data-name="Path 2202" d="M587.353,1465.359H559.927a5.938,5.938,0,0,0,0,11.875h27.425a5.938,5.938,0,0,0,0-11.875Z" transform="translate(99.105 365.426)" fill="#001010" stroke="#001010" stroke-width="1"/>
      <path id="Path_2203" data-name="Path 2203" d="M569.083,1465.359H541.657a5.938,5.938,0,0,0,0,11.875h27.425a5.938,5.938,0,1,0,0-11.875Z" transform="translate(49.505 365.426)" fill="#001010" stroke="#001010" stroke-width="1"/>
      <path id="Path_2204" data-name="Path 2204" d="M550.786,1465.359H523.36a5.938,5.938,0,0,0,0,11.875h27.425a5.938,5.938,0,0,0,0-11.875Z" transform="translate(0 365.426)" fill="#001010" stroke="#001010" stroke-width="1"/>
      <path id="Path_2205" data-name="Path 2205" d="M660.422,1330.66H633a5.919,5.919,0,1,0,0,11.838h27.425a5.919,5.919,0,1,0,0-11.838Z" transform="translate(297.375 0)" fill="#001010" stroke="#001010" stroke-width="1"/>
      <path id="Path_2206" data-name="Path 2206" d="M614.738,1342.5h27.425a5.919,5.919,0,1,0,0-11.838H614.738a5.919,5.919,0,1,0,0,11.838Z" transform="translate(247.805 0)" fill="#001010" stroke="#001010" stroke-width="1"/>
      <path id="Path_2207" data-name="Path 2207" d="M596.467,1342.5h27.425a5.919,5.919,0,1,0,0-11.838H596.467a5.919,5.919,0,1,0,0,11.838Z" transform="translate(198.238 0)" fill="#001010" stroke="#001010" stroke-width="1"/>
      <path id="Path_2208" data-name="Path 2208" d="M578.2,1342.5h27.425a5.919,5.919,0,1,0,0-11.838H578.2a5.919,5.919,0,1,0,0,11.838Z" transform="translate(148.672 0)" fill="#001010" stroke="#001010" stroke-width="1"/>
      <path id="Path_2209" data-name="Path 2209" d="M559.927,1342.5h27.425a5.919,5.919,0,1,0,0-11.838H559.927a5.919,5.919,0,1,0,0,11.838Z" transform="translate(99.106 0)" fill="#001010" stroke="#001010" stroke-width="1"/>
      <path id="Path_2210" data-name="Path 2210" d="M541.667,1342.5h27.425a5.919,5.919,0,1,0,0-11.838H541.667a5.919,5.919,0,1,0,0,11.838Z" transform="translate(49.532 0)" fill="#001010" stroke="#001010" stroke-width="1"/>
      <path id="Path_2211" data-name="Path 2211" d="M550.786,1330.66H523.36a5.919,5.919,0,0,0,0,11.838h27.425a5.919,5.919,0,1,0,0-11.838Z" transform="translate(0 0)" fill="#001010" stroke="#001010" stroke-width="1"/>
    </g>
  </g>
</svg>
