<svg xmlns="http://www.w3.org/2000/svg" width="512.499" height="512.5" viewBox="0 0 512.499 512.5">
  <g id="Group_222" data-name="Group 222" transform="translate(-1614.77 -1332.18)">
    <path id="Path_2135" data-name="Path 2135" d="M1649.032,1461.81a6.091,6.091,0,0,0-6.1,6.1v.687h-.687a6.1,6.1,0,0,0,0,12.193h6.746a6.057,6.057,0,0,0,6.058-6.1v-6.743a6.081,6.081,0,0,0-6.058-6.1Z" transform="translate(59.502 363.643)" fill="#001010" stroke="#001010" stroke-width="0.5"/>
    <path id="Path_2136" data-name="Path 2136" d="M1642.319,1463.58h-11.2a6.1,6.1,0,0,0,0,12.193h11.2a6.1,6.1,0,1,0,0-12.193Z" transform="translate(28.108 368.617)" fill="#001010" stroke="#001010" stroke-width="0.5"/>
    <path id="Path_2137" data-name="Path 2137" d="M1627.862,1468.581h-.687v-.685a6.077,6.077,0,1,0-12.155,0v6.745a6.091,6.091,0,0,0,6.1,6.1h6.745a6.1,6.1,0,0,0,0-12.2Z" transform="translate(0 363.614)" fill="#001010" stroke="#001010" stroke-width="0.5"/>
    <path id="Path_2138" data-name="Path 2138" d="M1621.117,1421.611a6.058,6.058,0,0,0,6.058-6.1v-13.147a6.077,6.077,0,1,0-12.155,0v13.147A6.09,6.09,0,0,0,1621.117,1421.611Z" transform="translate(0 179.433)" fill="#001010" stroke="#001010" stroke-width="0.5"/>
    <path id="Path_2139" data-name="Path 2139" d="M1621.117,1351.341a6.048,6.048,0,0,0,6.058-6.058v-.686h.687a6.078,6.078,0,1,0,0-12.157h-6.745a6.091,6.091,0,0,0-6.1,6.1v6.745A6.057,6.057,0,0,0,1621.117,1351.341Z" transform="translate(0 0.029)" fill="#001010" stroke="#001010" stroke-width="0.5"/>
    <path id="Path_2140" data-name="Path 2140" d="M1631.116,1344.585h11.2a6.078,6.078,0,1,0,0-12.156h-11.2a6.078,6.078,0,1,0,0,12.156Z" transform="translate(28.107 0)" fill="#001010" stroke="#001010" stroke-width="0.5"/>
    <path id="Path_2141" data-name="Path 2141" d="M1642.23,1344.585h.685v.688a6.078,6.078,0,0,0,12.157,0v-6.747a6.083,6.083,0,0,0-6.059-6.1h-6.745a6.078,6.078,0,0,0,0,12.156Z" transform="translate(59.558 0)" fill="#001010" stroke="#001010" stroke-width="0.5"/>
    <path id="Path_2142" data-name="Path 2142" d="M1644.057,1435.6a6.09,6.09,0,0,0-6.1,6.1v13.148a6.078,6.078,0,1,0,12.157,0V1441.7A6.083,6.083,0,0,0,1644.057,1435.6Z" transform="translate(64.477 289.976)" fill="#001010" stroke="#001010" stroke-width="0.5"/>
    <path id="Path_2143" data-name="Path 2143" d="M1644.057,1422.49a6.09,6.09,0,0,0-6.1,6.1v13.147a6.078,6.078,0,0,0,12.157,0v-13.147A6.083,6.083,0,0,0,1644.057,1422.49Z" transform="translate(64.477 253.127)" fill="#001010" stroke="#001010" stroke-width="0.5"/>
    <path id="Path_2144" data-name="Path 2144" d="M1644.057,1396.28a6.09,6.09,0,0,0-6.1,6.1v13.146a6.078,6.078,0,1,0,12.157,0v-13.146A6.083,6.083,0,0,0,1644.057,1396.28Z" transform="translate(64.477 179.46)" fill="#001010" stroke="#001010" stroke-width="0.5"/>
    <path id="Path_2145" data-name="Path 2145" d="M1685.1,1461.81a6.091,6.091,0,0,0-6.1,6.1v.687h-.686a6.1,6.1,0,0,0,0,12.193h6.745a6.091,6.091,0,0,0,6.1-6.1v-6.743a6.09,6.09,0,0,0-6.1-6.1Z" transform="translate(160.882 363.643)" fill="#001010" stroke="#001010" stroke-width="0.5"/>
    <path id="Path_2146" data-name="Path 2146" d="M1678.392,1463.58h-11.2a6.1,6.1,0,1,0,0,12.193h11.2a6.1,6.1,0,0,0,0-12.193Z" transform="translate(129.487 368.617)" fill="#001010" stroke="#001010" stroke-width="0.5"/>
    <path id="Path_2147" data-name="Path 2147" d="M1663.931,1468.581h-.685v-.685a6.078,6.078,0,1,0-12.157,0v6.745a6.092,6.092,0,0,0,6.1,6.1h6.745a6.1,6.1,0,0,0,0-12.2Z" transform="translate(101.381 363.614)" fill="#001010" stroke="#001010" stroke-width="0.5"/>
    <path id="Path_2148" data-name="Path 2148" d="M1657.186,1435.6a6.09,6.09,0,0,0-6.1,6.1v13.148a6.078,6.078,0,1,0,12.157,0V1441.7A6.083,6.083,0,0,0,1657.186,1435.6Z" transform="translate(101.381 289.976)" fill="#001010" stroke="#001010" stroke-width="0.5"/>
    <path id="Path_2149" data-name="Path 2149" d="M1657.186,1422.49a6.09,6.09,0,0,0-6.1,6.1v13.147a6.078,6.078,0,1,0,12.157,0v-13.147A6.083,6.083,0,0,0,1657.186,1422.49Z" transform="translate(101.381 253.127)" fill="#001010" stroke="#001010" stroke-width="0.5"/>
    <path id="Path_2150" data-name="Path 2150" d="M1657.186,1421.611a6.059,6.059,0,0,0,6.06-6.1v-13.147a6.078,6.078,0,1,0-12.157,0v13.147A6.091,6.091,0,0,0,1657.186,1421.611Z" transform="translate(101.381 179.433)" fill="#001010" stroke="#001010" stroke-width="0.5"/>
    <path id="Path_2151" data-name="Path 2151" d="M1657.186,1351.341a6.049,6.049,0,0,0,6.06-6.058v-.686h.685a6.078,6.078,0,1,0,0-12.157h-6.745a6.091,6.091,0,0,0-6.1,6.1v6.745A6.057,6.057,0,0,0,1657.186,1351.341Z" transform="translate(101.381 0.029)" fill="#001010" stroke="#001010" stroke-width="0.5"/>
    <path id="Path_2152" data-name="Path 2152" d="M1667.187,1344.585h11.2a6.078,6.078,0,1,0,0-12.156h-11.2a6.078,6.078,0,1,0,0,12.156Z" transform="translate(129.488 0)" fill="#001010" stroke="#001010" stroke-width="0.5"/>
    <path id="Path_2153" data-name="Path 2153" d="M1678.3,1344.585h.687v.688a6.1,6.1,0,0,0,12.193,0v-6.747a6.091,6.091,0,0,0-6.1-6.1h-6.745a6.078,6.078,0,0,0,0,12.156Z" transform="translate(160.939 0)" fill="#001010" stroke="#001010" stroke-width="0.5"/>
    <path id="Path_2154" data-name="Path 2154" d="M1680.128,1396.28a6.091,6.091,0,0,0-6.1,6.1v13.146a6.1,6.1,0,0,0,12.194,0v-13.146A6.089,6.089,0,0,0,1680.128,1396.28Z" transform="translate(165.858 179.46)" fill="#001010" stroke="#001010" stroke-width="0.5"/>
    <path id="Path_2155" data-name="Path 2155" d="M1680.128,1370.069a6.09,6.09,0,0,0-6.1,6.1v13.147a6.1,6.1,0,0,0,12.194,0v-13.147A6.09,6.09,0,0,0,1680.128,1370.069Z" transform="translate(165.858 105.793)" fill="#001010" stroke="#001010" stroke-width="0.5"/>
    <path id="Path_2156" data-name="Path 2156" d="M1680.128,1356.97a6.091,6.091,0,0,0-6.1,6.1v13.146a6.1,6.1,0,1,0,12.194,0v-13.146A6.089,6.089,0,0,0,1680.128,1356.97Z" transform="translate(165.858 68.974)" fill="#001010" stroke="#001010" stroke-width="0.5"/>
    <path id="Path_2157" data-name="Path 2157" d="M1721.172,1461.81a6.092,6.092,0,0,0-6.1,6.1v.687h-.687a6.1,6.1,0,0,0,0,12.193h6.746a6.058,6.058,0,0,0,6.059-6.1v-6.743a6.082,6.082,0,0,0-6.059-6.1Z" transform="translate(262.262 363.643)" fill="#001010" stroke="#001010" stroke-width="0.5"/>
    <path id="Path_2158" data-name="Path 2158" d="M1714.46,1463.58h-11.2a6.1,6.1,0,0,0,0,12.193h11.2a6.1,6.1,0,0,0,0-12.193Z" transform="translate(230.867 368.617)" fill="#001010" stroke="#001010" stroke-width="0.5"/>
    <path id="Path_2159" data-name="Path 2159" d="M1700.03,1468.581h-.686v-.685a6.1,6.1,0,0,0-12.193,0v6.745a6.091,6.091,0,0,0,6.1,6.1h6.745a6.1,6.1,0,0,0,0-12.2Z" transform="translate(202.732 363.614)" fill="#001010" stroke="#001010" stroke-width="0.5"/>
    <path id="Path_2160" data-name="Path 2160" d="M1693.256,1421.611a6.09,6.09,0,0,0,6.1-6.1v-13.147a6.1,6.1,0,1,0-12.193,0v13.147A6.09,6.09,0,0,0,1693.256,1421.611Z" transform="translate(202.762 179.433)" fill="#001010" stroke="#001010" stroke-width="0.5"/>
    <path id="Path_2161" data-name="Path 2161" d="M1693.256,1370.069a6.089,6.089,0,0,0-6.1,6.1v13.147a6.1,6.1,0,0,0,12.193,0v-13.147A6.09,6.09,0,0,0,1693.256,1370.069Z" transform="translate(202.762 105.793)" fill="#001010" stroke="#001010" stroke-width="0.5"/>
    <path id="Path_2162" data-name="Path 2162" d="M1693.256,1356.97a6.089,6.089,0,0,0-6.1,6.1v13.146a6.1,6.1,0,1,0,12.193,0v-13.146A6.09,6.09,0,0,0,1693.256,1356.97Z" transform="translate(202.762 68.974)" fill="#001010" stroke="#001010" stroke-width="0.5"/>
    <path id="Path_2163" data-name="Path 2163" d="M1693.229,1351.341a6.081,6.081,0,0,0,6.1-6.058v-.686h.685a6.078,6.078,0,0,0,0-12.157h-6.745a6.091,6.091,0,0,0-6.1,6.1v6.745a6.057,6.057,0,0,0,6.1,6.058Z" transform="translate(202.789 0.029)" fill="#001010" stroke="#001010" stroke-width="0.5"/>
    <path id="Path_2164" data-name="Path 2164" d="M1703.257,1344.585h11.2a6.078,6.078,0,1,0,0-12.156h-11.2a6.078,6.078,0,1,0,0,12.156Z" transform="translate(230.867 0)" fill="#001010" stroke="#001010" stroke-width="0.5"/>
    <path id="Path_2165" data-name="Path 2165" d="M1714.371,1344.585h.686v.688a6.077,6.077,0,0,0,12.155,0v-6.747a6.083,6.083,0,0,0-6.059-6.1h-6.745a6.078,6.078,0,0,0,0,12.156Z" transform="translate(262.319 0)" fill="#001010" stroke="#001010" stroke-width="0.5"/>
    <path id="Path_2166" data-name="Path 2166" d="M1716.2,1435.6a6.09,6.09,0,0,0-6.1,6.1v13.148a6.078,6.078,0,1,0,12.157,0V1441.7A6.083,6.083,0,0,0,1716.2,1435.6Z" transform="translate(267.237 289.976)" fill="#001010" stroke="#001010" stroke-width="0.5"/>
    <path id="Path_2167" data-name="Path 2167" d="M1716.2,1422.49a6.09,6.09,0,0,0-6.1,6.1v13.147a6.078,6.078,0,0,0,12.157,0v-13.147A6.084,6.084,0,0,0,1716.2,1422.49Z" transform="translate(267.237 253.127)" fill="#001010" stroke="#001010" stroke-width="0.5"/>
    <path id="Path_2168" data-name="Path 2168" d="M1722.266,1415.524v-13.146a6.078,6.078,0,1,0-12.156,0v13.146a6.078,6.078,0,1,0,12.156,0Z" transform="translate(267.265 179.46)" fill="#001010" stroke="#001010" stroke-width="0.5"/>
    <path id="Path_2169" data-name="Path 2169" d="M1716.2,1370.069a6.09,6.09,0,0,0-6.1,6.1v13.147a6.078,6.078,0,1,0,12.157,0v-13.147A6.084,6.084,0,0,0,1716.2,1370.069Z" transform="translate(267.237 105.793)" fill="#001010" stroke="#001010" stroke-width="0.5"/>
    <path id="Path_2170" data-name="Path 2170" d="M1716.2,1356.97a6.09,6.09,0,0,0-6.1,6.1v13.146a6.078,6.078,0,1,0,12.157,0v-13.146A6.083,6.083,0,0,0,1716.2,1356.97Z" transform="translate(267.237 68.974)" fill="#001010" stroke="#001010" stroke-width="0.5"/>
    <path id="Path_2171" data-name="Path 2171" d="M1757.269,1461.81a6.089,6.089,0,0,0-6.1,6.1v.687h-.687a6.1,6.1,0,1,0,0,12.193h6.746a6.09,6.09,0,0,0,6.1-6.1v-6.743a6.09,6.09,0,0,0-6.1-6.1Z" transform="translate(363.615 363.643)" fill="#001010" stroke="#001010" stroke-width="0.5"/>
    <path id="Path_2172" data-name="Path 2172" d="M1750.53,1463.58h-11.2a6.1,6.1,0,0,0,0,12.193h11.2a6.1,6.1,0,1,0,0-12.193Z" transform="translate(332.248 368.617)" fill="#001010" stroke="#001010" stroke-width="0.5"/>
    <path id="Path_2173" data-name="Path 2173" d="M1736.072,1468.581h-.685v-.685a6.078,6.078,0,1,0-12.157,0v6.745a6.091,6.091,0,0,0,6.1,6.1h6.743a6.1,6.1,0,0,0,0-12.2Z" transform="translate(304.142 363.614)" fill="#001010" stroke="#001010" stroke-width="0.5"/>
    <path id="Path_2174" data-name="Path 2174" d="M1729.328,1435.6a6.09,6.09,0,0,0-6.1,6.1v13.148a6.078,6.078,0,1,0,12.157,0V1441.7A6.082,6.082,0,0,0,1729.328,1435.6Z" transform="translate(304.142 289.976)" fill="#001010" stroke="#001010" stroke-width="0.5"/>
    <path id="Path_2175" data-name="Path 2175" d="M1729.328,1422.49a6.091,6.091,0,0,0-6.1,6.1v13.147a6.078,6.078,0,1,0,12.157,0v-13.147A6.083,6.083,0,0,0,1729.328,1422.49Z" transform="translate(304.142 253.127)" fill="#001010" stroke="#001010" stroke-width="0.5"/>
    <path id="Path_2176" data-name="Path 2176" d="M1735.385,1415.524v-13.146a6.078,6.078,0,1,0-12.156,0v13.146a6.078,6.078,0,1,0,12.156,0Z" transform="translate(304.142 179.46)" fill="#001010" stroke="#001010" stroke-width="0.5"/>
    <path id="Path_2177" data-name="Path 2177" d="M1729.328,1370.069a6.091,6.091,0,0,0-6.1,6.1v13.147a6.078,6.078,0,1,0,12.157,0v-13.147A6.083,6.083,0,0,0,1729.328,1370.069Z" transform="translate(304.142 105.793)" fill="#001010" stroke="#001010" stroke-width="0.5"/>
    <path id="Path_2178" data-name="Path 2178" d="M1729.328,1356.97a6.091,6.091,0,0,0-6.1,6.1v13.146a6.078,6.078,0,1,0,12.157,0v-13.146A6.082,6.082,0,0,0,1729.328,1356.97Z" transform="translate(304.142 68.974)" fill="#001010" stroke="#001010" stroke-width="0.5"/>
    <path id="Path_2179" data-name="Path 2179" d="M1729.328,1351.341a6.049,6.049,0,0,0,6.058-6.058v-.686h.685a6.078,6.078,0,0,0,0-12.157h-6.743a6.092,6.092,0,0,0-6.1,6.1v6.745A6.057,6.057,0,0,0,1729.328,1351.341Z" transform="translate(304.142 0.029)" fill="#001010" stroke="#001010" stroke-width="0.5"/>
    <path id="Path_2180" data-name="Path 2180" d="M1739.328,1344.585h11.2a6.078,6.078,0,1,0,0-12.156h-11.2a6.078,6.078,0,1,0,0,12.156Z" transform="translate(332.248 0)" fill="#001010" stroke="#001010" stroke-width="0.5"/>
    <path id="Path_2181" data-name="Path 2181" d="M1757.243,1332.43H1750.5a6.078,6.078,0,1,0,0,12.156h.684v.688a6.1,6.1,0,0,0,12.2,0v-6.747a6.091,6.091,0,0,0-6.1-6.1Z" transform="translate(363.642 0)" fill="#001010" stroke="#001010" stroke-width="0.5"/>
    <path id="Path_2182" data-name="Path 2182" d="M1752.266,1396.28a6.09,6.09,0,0,0-6.1,6.1v13.146a6.1,6.1,0,0,0,12.194,0v-13.146A6.09,6.09,0,0,0,1752.266,1396.28Z" transform="translate(368.618 179.46)" fill="#001010" stroke="#001010" stroke-width="0.5"/>
    <path id="Path_2183" data-name="Path 2183" d="M2019.5,1343.63H1657.188a6.091,6.091,0,0,0-6.1,6.1v164.62a6.092,6.092,0,0,0,6.1,6.1H2019.5a6.091,6.091,0,0,0,6.1-6.1v-164.62A6.09,6.09,0,0,0,2019.5,1343.63Zm-6.1,164.62h-75.26v-7.85a6.078,6.078,0,0,0-12.157,0v7.85h-37.879v-7.85a6.077,6.077,0,1,0-12.155,0v7.85H1800.7v-7.85a6.1,6.1,0,0,0-12.193,0v7.85h-37.879v-7.85a6.1,6.1,0,0,0-12.194,0v7.85h-75.26V1355.785h75.26v7.965a6.1,6.1,0,0,0,12.194,0v-7.965H1788.5v7.965a6.1,6.1,0,1,0,12.193,0v-7.965h75.261v7.965a6.077,6.077,0,1,0,12.155,0v-7.965h37.879v7.965a6.078,6.078,0,1,0,12.157,0v-7.965h75.26Z" transform="translate(101.382 31.479)" fill="#001010" stroke="#001010" stroke-width="0.5"/>
    <path id="Path_2184" data-name="Path 2184" d="M1621.117,1520.434h87.417a6.056,6.056,0,0,0,6.058-6.1V1349.718a6.082,6.082,0,0,0-6.058-6.1h-87.417a6.09,6.09,0,0,0-6.1,6.1v164.621A6.09,6.09,0,0,0,1621.117,1520.434Zm6.058-164.62h75.261v152.463h-75.261Z" transform="translate(0 31.451)" fill="#001010" stroke="#001010" stroke-width="0.5"/>
    <path id="Path_2185" data-name="Path 2185" d="M1845.985,1409.25H1621.117a6.089,6.089,0,0,0-6.1,6.1v164.622a6.089,6.089,0,0,0,6.1,6.1h224.868a6.09,6.09,0,0,0,6.1-6.1V1415.347A6.089,6.089,0,0,0,1845.985,1409.25Zm-6.1,164.62h-75.261v-8.193a6.078,6.078,0,1,0-12.156,0v8.193h-37.877v-8.193a6.078,6.078,0,1,0-12.157,0v8.193h-75.261V1421.407h75.261v7.582a6.078,6.078,0,1,0,12.157,0v-7.582h37.877v7.582a6.078,6.078,0,0,0,12.156,0v-7.582h75.261Z" transform="translate(0 215.914)" fill="#001010" stroke="#001010" stroke-width="0.5"/>
    <path id="Path_2186" data-name="Path 2186" d="M1918.122,1409.25H1693.256a6.089,6.089,0,0,0-6.1,6.1v164.622a6.089,6.089,0,0,0,6.1,6.1h224.867a6.09,6.09,0,0,0,6.1-6.1V1415.347A6.091,6.091,0,0,0,1918.122,1409.25Zm-6.1,164.62h-75.261v-8.193a6.078,6.078,0,1,0-12.157,0v8.193h-37.876v-8.193a6.079,6.079,0,1,0-12.158,0v8.193h-75.26V1421.407h75.26v7.582a6.079,6.079,0,1,0,12.158,0v-7.582h37.876v7.582a6.078,6.078,0,0,0,12.157,0v-7.582h75.261Z" transform="translate(202.762 215.914)" fill="#001010" stroke="#001010" stroke-width="0.5"/>
  </g>
</svg>
