<svg xmlns="http://www.w3.org/2000/svg" xmlns:xlink="http://www.w3.org/1999/xlink" width="213" height="75" viewBox="0 0 213 75">
  <defs>
    <clipPath id="clip-triox_logo">
      <rect width="213" height="75"/>
    </clipPath>
  </defs>
  <g id="triox_logo" data-name="triox logo" clip-path="url(#clip-triox_logo)">
    <path id="path22" d="M-113.742-73.092l-4.282,11.412h-11.338v22a57.727,57.727,0,0,0,.269,7.8,3.219,3.219,0,0,0,1.3,1.835,4.115,4.115,0,0,0,2.432.716,58.088,58.088,0,0,0,9.443-2.312l-4.789,12.889a24.1,24.1,0,0,1-9,1.342,17.9,17.9,0,0,1-6.967-1.3,10.275,10.275,0,0,1-4.565-3.386,13.517,13.517,0,0,1-2.014-5.639,71.314,71.314,0,0,1-.462-10.174V-79.194l7.355-7.221,6.5-5.639.492-.3v19.259Z" transform="translate(155.655 92.006)" fill="#011919"/>
    <path id="path26" d="M-54.466-210.866H-68.817V-265.2H-55.51l-4.863,11.4c3.014-5.624,9.13-13.516,17.261-12.546,3.267.388,8.444,1.447,11.487,3.237l-6.847,11.144c-3.178-1.776-7.027-2.715-11.487.149-1.507.97-2.506,3.118-3.3,6.012q-1.208,4.341-1.208,18.2v16.738Z" transform="translate(111.891 284.112)" fill="#011919"/>
    <path id="path44" d="M0-43.594V-55.081H12.382Z" transform="translate(-0.442 74.159)" fill="#011919"/>
    <path id="path28" d="M782.47-671.646h14.351v54.332H782.47Zm-.015,0v-13.292h14.352l-7,6.071Z" transform="translate(-699.174 690.56)" fill="#011919"/>
    <path id="path32" d="M-56.051-107.855q0,8.1,3.819,12.4a12.145,12.145,0,0,0,9.458,4.311,12,12,0,0,0,9.4-4.311c2.536-2.864,3.8-7.041,3.8-12.5,0-5.311-1.268-9.413-3.8-12.278a12.005,12.005,0,0,0-9.4-4.311,12.146,12.146,0,0,0-9.458,4.311q-3.827,4.3-3.819,12.382m-14.769-.761a29.329,29.329,0,0,1,3.536-13.874,23.988,23.988,0,0,1,10-10.234,29.527,29.527,0,0,1,14.426-3.551q12.33,0,20.184,8.011C-17.427-122.907-14.8-116.179-14.8-108q0,12.352-7.951,20.468t-20.005,8.1a31.691,31.691,0,0,1-14.232-3.372,23.075,23.075,0,0,1-10.293-9.921q-3.536-6.512-3.536-15.888" transform="translate(173.117 154.039)" fill="#011919"/>
    <path id="path36" d="M-110.459-57.466c-4.073-5.773-8.563-12.158-10.607-15.142h-16.813l18.409,25.734-20.1,28.583h17.5c4.013-6.027,7.922-12.039,12.054-17.9-2.536-3.64-5.162-7.22-7.952-10.726.82-1.119,3.953-5.549,7.5-10.547" transform="translate(291.526 92.894)" fill="#011919"/>
    <path id="path40" d="M0-99.985c1.79-2.461,14.665-20.617,18.573-26.346H35.386L16.977-100.6,37.057-72h-17.5C13.233-81.531,7.146-91.019,0-99.985" transform="translate(175.563 145.96)" fill="#011919"/>
  </g>
</svg>
